# xmcd
#
# Track frame offsets:
# 150
# 16398
# 32080
# 46853
# 60089
# 73445
# 86752
# 100147
# 111739
# 125671
# 140972
# 154398
# 168132
# 182345
# 195281
# 207736
#
# Disc length: 2958 seconds
#
# Revision: 1
# Processed by: cddbd v1.5.1PL2 Copyright (c) Steve Scherf et al.
# Submitted via: Easy CD Ripper v2.37
#
DISCID=e80b8c10
DTITLE=The Carter Family - When the Roses Bloom in Dixieland
DYEAR=1995
DGENRE=Country
TTITLE0=Motherless Children
TTITLE1=When the Roses Bloom in Dixieland
TTITLE2=No Telephone in Heaven
TTITLE3=The Western Hobo
TTITLE4=Carter's Blues
TTITLE5=Wabash Cannonball
TTITLE6=A Distant Land to Roam
TTITLE7=Jimmy Brown the Newsboy
TTITLE8=Kitty Waltz
TTITLE9=Fond Affection
TTITLE10=The Cannonball
TTITLE11=Lover's Farewell
TTITLE12=There's Someone Awaiting For Me
TTITLE13=Little Log Hut in the Lane
TTITLE14=When the Springtime Comes Again
TTITLE15=When the World's On Fire
EXTD=
EXTT0=
EXTT1=
EXTT2=
EXTT3=
EXTT4=
EXTT5=
EXTT6=
EXTT7=
EXTT8=
EXTT9=
EXTT10=
EXTT11=
EXTT12=
EXTT13=
EXTT14=
EXTT15=
PLAYORDER=
